<?xml version="1.0" encoding="iso-8859-1"?>
<!-- Generator: Adobe Illustrator 19.0.0, SVG Export Plug-In . SVG Version: 6.00 Build 0)  -->
<svg xmlns="http://www.w3.org/2000/svg" xmlns:xlink="http://www.w3.org/1999/xlink" version="1.1" id="Capa_1" x="0px" y="0px" viewBox="0 0 512 512" style="enable-background:new 0 0 512 512;" xml:space="preserve" width="512px" height="512px">
<g>
	<g>
		<path d="M160,256c-44.096,0-80,35.904-80,80s35.904,80,80,80s80-35.904,80-80S204.096,256,160,256z M160,384    c-26.464,0-48-21.536-48-48s21.536-48,48-48s48,21.536,48,48S186.464,384,160,384z" fill="#68ab4f"/>
	</g>
</g>
<g>
	<g>
		<path d="M496,176h-96c-4.256,0-8.32,1.696-11.328,4.672L361.344,208H320v-16c0-8.832-7.168-16-16-16H160    C71.776,176,0,247.776,0,336s71.776,160,160,160c79.232,0,145.536-57.056,158.016-134.272l184.032-74.912    c6.016-2.464,9.952-8.32,9.952-14.816v-80C512,183.168,504.832,176,496,176z M480,261.248l-182.656,74.336    c-5.472,2.24-9.312,7.328-9.888,13.216C280.8,414.464,226.016,464,160,464c-70.592,0-128-57.408-128-128s57.408-128,128-128h128    v16c0,8.832,7.168,16,16,16h64c4.256,0,8.32-1.696,11.328-4.672L406.624,208H480V261.248z" fill="#9fab4f"/>
	</g>
</g>
<g>
	<g>
		<path d="M352,16c-8.832,0-16,7.168-16,16v96c0,8.832,7.168,16,16,16c8.832,0,16-7.168,16-16V32C368,23.168,360.832,16,352,16z" fill="#8cab4f"/>
	</g>
</g>
<g>
	<g>
		<path d="M300.8,118.4l-48-64c-5.312-7.104-15.328-8.48-22.4-3.2c-7.072,5.312-8.512,15.328-3.2,22.4l48,64    c3.136,4.192,7.936,6.4,12.8,6.4c3.36,0,6.72-1.056,9.6-3.2C304.672,135.488,306.112,125.472,300.8,118.4z" fill="#aba24f"/>
	</g>
</g>
<g>
	<g>
		<path d="M473.6,51.2c-7.04-5.248-17.088-3.872-22.4,3.2l-48,64c-5.312,7.072-3.872,17.088,3.2,22.4c2.88,2.144,6.24,3.2,9.6,3.2    c4.864,0,9.664-2.208,12.8-6.4l48-64C482.112,66.528,480.672,56.512,473.6,51.2z" fill="#8b878f"/>
	</g>
</g>
<g>
</g>
<g>
</g>
<g>
</g>
<g>
</g>
<g>
</g>
<g>
</g>
<g>
</g>
<g>
</g>
<g>
</g>
<g>
</g>
<g>
</g>
<g>
</g>
<g>
</g>
<g>
</g>
<g>
</g>
</svg>
